<mxfile host="app.diagrams.net" modified="2023-08-15T14:27:58.799Z" agent="Mozilla/5.0 (X11; Linux x86_64) AppleWebKit/537.36 (KHTML, like Gecko) Chrome/114.0.0.0 Safari/537.36" etag="Bg8752SS2vXc-QnXsNi7" version="21.6.6" type="device">
  <diagram name="Page-1" id="AZ20J6080wLmxK7e-z4s">
    <mxGraphModel dx="1434" dy="749" grid="1" gridSize="10" guides="1" tooltips="1" connect="1" arrows="1" fold="1" page="1" pageScale="1" pageWidth="827" pageHeight="1169" math="0" shadow="0">
      <root>
        <mxCell id="0" />
        <mxCell id="1" parent="0" />
        <mxCell id="M7T0V7UtyjA9PLbuyTB--1" value="User Browser" style="image;points=[];aspect=fixed;html=1;align=center;shadow=0;dashed=0;image=img/lib/allied_telesis/computer_and_terminals/Personal_Computer.svg;" vertex="1" parent="1">
          <mxGeometry x="20" y="278.2" width="45.6" height="61.800000000000004" as="geometry" />
        </mxCell>
        <mxCell id="M7T0V7UtyjA9PLbuyTB--2" value="dynamoDB" style="image;aspect=fixed;perimeter=ellipsePerimeter;html=1;align=center;shadow=0;dashed=0;spacingTop=3;image=img/lib/active_directory/database_server.svg;" vertex="1" parent="1">
          <mxGeometry x="710" y="243" width="41" height="50" as="geometry" />
        </mxCell>
        <mxCell id="M7T0V7UtyjA9PLbuyTB--3" value="Vercel" style="image;aspect=fixed;perimeter=ellipsePerimeter;html=1;align=center;shadow=0;dashed=0;spacingTop=3;image=img/lib/active_directory/generic_server.svg;" vertex="1" parent="1">
          <mxGeometry x="140" y="94" width="28.000000000000004" height="50" as="geometry" />
        </mxCell>
        <mxCell id="M7T0V7UtyjA9PLbuyTB--10" style="edgeStyle=orthogonalEdgeStyle;rounded=0;orthogonalLoop=1;jettySize=auto;html=1;exitX=1;exitY=0.5;exitDx=0;exitDy=0;entryX=0;entryY=0.5;entryDx=0;entryDy=0;dashed=1;" edge="1" parent="1" source="M7T0V7UtyjA9PLbuyTB--4" target="M7T0V7UtyjA9PLbuyTB--9">
          <mxGeometry relative="1" as="geometry">
            <mxPoint x="332" y="400" as="targetPoint" />
          </mxGeometry>
        </mxCell>
        <mxCell id="M7T0V7UtyjA9PLbuyTB--4" value="Auth0" style="image;aspect=fixed;perimeter=ellipsePerimeter;html=1;align=center;shadow=0;dashed=0;spacingTop=3;image=img/lib/active_directory/generic_server.svg;" vertex="1" parent="1">
          <mxGeometry x="442" y="387" width="28.000000000000004" height="50" as="geometry" />
        </mxCell>
        <mxCell id="M7T0V7UtyjA9PLbuyTB--7" value="Pusher" style="image;aspect=fixed;perimeter=ellipsePerimeter;html=1;align=center;shadow=0;dashed=0;spacingTop=3;image=img/lib/active_directory/generic_server.svg;" vertex="1" parent="1">
          <mxGeometry x="280" y="89" width="28.000000000000004" height="50" as="geometry" />
        </mxCell>
        <mxCell id="M7T0V7UtyjA9PLbuyTB--41" style="edgeStyle=orthogonalEdgeStyle;rounded=0;orthogonalLoop=1;jettySize=auto;html=1;entryX=0.5;entryY=0;entryDx=0;entryDy=0;exitX=0.032;exitY=0.471;exitDx=0;exitDy=0;exitPerimeter=0;" edge="1" parent="1" source="M7T0V7UtyjA9PLbuyTB--36" target="M7T0V7UtyjA9PLbuyTB--3">
          <mxGeometry relative="1" as="geometry" />
        </mxCell>
        <mxCell id="M7T0V7UtyjA9PLbuyTB--8" value="&amp;nbsp;Grafbase&amp;nbsp;" style="image;aspect=fixed;perimeter=ellipsePerimeter;html=1;align=center;shadow=0;dashed=0;spacingTop=3;image=img/lib/active_directory/generic_server.svg;imageBackground=default;labelBackgroundColor=#66FFB3;fontSize=21;fontStyle=1" vertex="1" parent="1">
          <mxGeometry x="550" y="250" width="28.000000000000004" height="50" as="geometry" />
        </mxCell>
        <mxCell id="M7T0V7UtyjA9PLbuyTB--9" value="Google Accounts" style="image;aspect=fixed;perimeter=ellipsePerimeter;html=1;align=center;shadow=0;dashed=0;spacingTop=3;image=img/lib/active_directory/generic_server.svg;" vertex="1" parent="1">
          <mxGeometry x="612" y="387" width="28.000000000000004" height="50" as="geometry" />
        </mxCell>
        <mxCell id="M7T0V7UtyjA9PLbuyTB--14" value="" style="edgeStyle=elbowEdgeStyle;elbow=horizontal;endArrow=classic;html=1;curved=0;rounded=0;endSize=8;startSize=8;exitX=0.714;exitY=0.4;exitDx=0;exitDy=0;entryX=0;entryY=0.5;entryDx=0;entryDy=0;dashed=1;exitPerimeter=0;" edge="1" parent="1" source="M7T0V7UtyjA9PLbuyTB--3" target="M7T0V7UtyjA9PLbuyTB--7">
          <mxGeometry width="50" height="50" relative="1" as="geometry">
            <mxPoint x="390" y="410" as="sourcePoint" />
            <mxPoint x="440" y="360" as="targetPoint" />
          </mxGeometry>
        </mxCell>
        <mxCell id="M7T0V7UtyjA9PLbuyTB--15" value="" style="edgeStyle=elbowEdgeStyle;elbow=horizontal;endArrow=classic;html=1;curved=0;rounded=0;endSize=8;startSize=8;entryX=-0.321;entryY=0.62;entryDx=0;entryDy=0;entryPerimeter=0;dashed=1;" edge="1" parent="1" source="M7T0V7UtyjA9PLbuyTB--1" target="M7T0V7UtyjA9PLbuyTB--3">
          <mxGeometry width="50" height="50" relative="1" as="geometry">
            <mxPoint x="140" y="260" as="sourcePoint" />
            <mxPoint x="190" y="210" as="targetPoint" />
          </mxGeometry>
        </mxCell>
        <mxCell id="M7T0V7UtyjA9PLbuyTB--16" value="" style="edgeStyle=elbowEdgeStyle;elbow=horizontal;endArrow=classic;html=1;curved=0;rounded=0;endSize=8;startSize=8;entryX=0;entryY=0.5;entryDx=0;entryDy=0;dashed=1;" edge="1" parent="1" source="M7T0V7UtyjA9PLbuyTB--1" target="M7T0V7UtyjA9PLbuyTB--4">
          <mxGeometry width="50" height="50" relative="1" as="geometry">
            <mxPoint x="80" y="540" as="sourcePoint" />
            <mxPoint x="130" y="490" as="targetPoint" />
          </mxGeometry>
        </mxCell>
        <mxCell id="M7T0V7UtyjA9PLbuyTB--18" value="" style="edgeStyle=elbowEdgeStyle;elbow=horizontal;endArrow=classic;html=1;curved=0;rounded=0;endSize=8;startSize=8;exitX=0.899;exitY=0.353;exitDx=0;exitDy=0;exitPerimeter=0;entryX=0;entryY=0.5;entryDx=0;entryDy=0;" edge="1" parent="1" source="M7T0V7UtyjA9PLbuyTB--1" target="M7T0V7UtyjA9PLbuyTB--8">
          <mxGeometry width="50" height="50" relative="1" as="geometry">
            <mxPoint x="210" y="530" as="sourcePoint" />
            <mxPoint x="260" y="480" as="targetPoint" />
          </mxGeometry>
        </mxCell>
        <mxCell id="M7T0V7UtyjA9PLbuyTB--33" value="Graph QL" style="edgeLabel;html=1;align=center;verticalAlign=middle;resizable=0;points=[];" vertex="1" connectable="0" parent="M7T0V7UtyjA9PLbuyTB--18">
          <mxGeometry x="0.5175" y="1" relative="1" as="geometry">
            <mxPoint as="offset" />
          </mxGeometry>
        </mxCell>
        <mxCell id="M7T0V7UtyjA9PLbuyTB--19" value="" style="edgeStyle=elbowEdgeStyle;elbow=horizontal;endArrow=classic;html=1;curved=0;rounded=0;endSize=8;startSize=8;exitX=0.5;exitY=1;exitDx=0;exitDy=0;entryX=0.357;entryY=0.4;entryDx=0;entryDy=0;entryPerimeter=0;" edge="1" parent="1" source="M7T0V7UtyjA9PLbuyTB--8" target="M7T0V7UtyjA9PLbuyTB--9">
          <mxGeometry width="50" height="50" relative="1" as="geometry">
            <mxPoint x="390" y="410" as="sourcePoint" />
            <mxPoint x="440" y="360" as="targetPoint" />
          </mxGeometry>
        </mxCell>
        <mxCell id="M7T0V7UtyjA9PLbuyTB--32" value="OpenID Grafbase Auth" style="edgeLabel;html=1;align=center;verticalAlign=middle;resizable=0;points=[];" vertex="1" connectable="0" parent="M7T0V7UtyjA9PLbuyTB--19">
          <mxGeometry x="0.1394" y="3" relative="1" as="geometry">
            <mxPoint as="offset" />
          </mxGeometry>
        </mxCell>
        <mxCell id="M7T0V7UtyjA9PLbuyTB--20" value="" style="edgeStyle=elbowEdgeStyle;elbow=horizontal;endArrow=classic;html=1;curved=0;rounded=0;endSize=8;startSize=8;exitX=1;exitY=0.5;exitDx=0;exitDy=0;entryX=-0.122;entryY=0.64;entryDx=0;entryDy=0;entryPerimeter=0;" edge="1" parent="1" source="M7T0V7UtyjA9PLbuyTB--8" target="M7T0V7UtyjA9PLbuyTB--2">
          <mxGeometry width="50" height="50" relative="1" as="geometry">
            <mxPoint x="680" y="390" as="sourcePoint" />
            <mxPoint x="730" y="340" as="targetPoint" />
          </mxGeometry>
        </mxCell>
        <mxCell id="M7T0V7UtyjA9PLbuyTB--23" value="" style="edgeStyle=elbowEdgeStyle;elbow=vertical;endArrow=classic;html=1;curved=0;rounded=0;endSize=8;startSize=8;exitX=0.25;exitY=1;exitDx=0;exitDy=0;dashed=1;dashPattern=8 8;" edge="1" parent="1" source="M7T0V7UtyjA9PLbuyTB--7" target="M7T0V7UtyjA9PLbuyTB--1">
          <mxGeometry width="50" height="50" relative="1" as="geometry">
            <mxPoint x="390" y="410" as="sourcePoint" />
            <mxPoint x="440" y="360" as="targetPoint" />
          </mxGeometry>
        </mxCell>
        <mxCell id="M7T0V7UtyjA9PLbuyTB--24" value="Vercel for &lt;br&gt;Serverless web and API (Pusher publisher) hosting" style="rounded=0;whiteSpace=wrap;html=1;" vertex="1" parent="1">
          <mxGeometry x="70" y="10" width="120" height="60" as="geometry" />
        </mxCell>
        <mxCell id="M7T0V7UtyjA9PLbuyTB--25" value="Push Sub Event Service for chat and leaderboard" style="rounded=0;whiteSpace=wrap;html=1;" vertex="1" parent="1">
          <mxGeometry x="260" y="10" width="120" height="60" as="geometry" />
        </mxCell>
        <mxCell id="M7T0V7UtyjA9PLbuyTB--26" value="https://grafbase-godwinpinto.vercel.app" style="rounded=0;whiteSpace=wrap;html=1;" vertex="1" parent="1">
          <mxGeometry x="20" y="370" width="120" height="60" as="geometry" />
        </mxCell>
        <mxCell id="M7T0V7UtyjA9PLbuyTB--28" value="Authentication service" style="rounded=0;whiteSpace=wrap;html=1;" vertex="1" parent="1">
          <mxGeometry x="390" y="470" width="120" height="60" as="geometry" />
        </mxCell>
        <mxCell id="M7T0V7UtyjA9PLbuyTB--29" value="Identity and user management service" style="rounded=0;whiteSpace=wrap;html=1;" vertex="1" parent="1">
          <mxGeometry x="566" y="470" width="120" height="60" as="geometry" />
        </mxCell>
        <mxCell id="M7T0V7UtyjA9PLbuyTB--30" value="Default DB with Grafbase" style="rounded=0;whiteSpace=wrap;html=1;" vertex="1" parent="1">
          <mxGeometry x="680" y="170" width="120" height="60" as="geometry" />
        </mxCell>
        <mxCell id="M7T0V7UtyjA9PLbuyTB--31" value="Serverless GrapQL service" style="rounded=0;whiteSpace=wrap;html=1;fillColor=#d5e8d4;strokeColor=#82b366;fontSize=15;" vertex="1" parent="1">
          <mxGeometry x="504" y="183" width="120" height="60" as="geometry" />
        </mxCell>
        <mxCell id="M7T0V7UtyjA9PLbuyTB--34" value="cryptocompare.com" style="image;aspect=fixed;perimeter=ellipsePerimeter;html=1;align=center;shadow=0;dashed=0;spacingTop=3;image=img/lib/active_directory/generic_server.svg;" vertex="1" parent="1">
          <mxGeometry x="612" y="30" width="28.000000000000004" height="50" as="geometry" />
        </mxCell>
        <mxCell id="M7T0V7UtyjA9PLbuyTB--35" value="Realtime Cryto rates" style="rounded=0;whiteSpace=wrap;html=1;" vertex="1" parent="1">
          <mxGeometry x="660" y="25" width="120" height="60" as="geometry" />
        </mxCell>
        <mxCell id="M7T0V7UtyjA9PLbuyTB--36" value="EC2 Windows Machine &lt;br&gt;with Admin" style="image;points=[];aspect=fixed;html=1;align=center;shadow=0;dashed=0;image=img/lib/allied_telesis/computer_and_terminals/Personal_Computer_with_Server.svg;" vertex="1" parent="1">
          <mxGeometry x="460" y="17.600000000000023" width="62.400000000000006" height="62.400000000000006" as="geometry" />
        </mxCell>
        <mxCell id="M7T0V7UtyjA9PLbuyTB--37" value="" style="edgeStyle=elbowEdgeStyle;elbow=horizontal;endArrow=classic;html=1;curved=0;rounded=0;endSize=8;startSize=8;entryX=0.5;entryY=0;entryDx=0;entryDy=0;dashed=1;exitX=1.042;exitY=0.631;exitDx=0;exitDy=0;exitPerimeter=0;" edge="1" parent="1" source="M7T0V7UtyjA9PLbuyTB--36" target="M7T0V7UtyjA9PLbuyTB--8">
          <mxGeometry width="50" height="50" relative="1" as="geometry">
            <mxPoint x="76" y="319" as="sourcePoint" />
            <mxPoint x="141" y="135" as="targetPoint" />
          </mxGeometry>
        </mxCell>
        <mxCell id="M7T0V7UtyjA9PLbuyTB--38" value="" style="edgeStyle=elbowEdgeStyle;elbow=horizontal;endArrow=classic;html=1;curved=0;rounded=0;endSize=8;startSize=8;entryX=0;entryY=0.5;entryDx=0;entryDy=0;dashed=1;exitX=0.929;exitY=0.439;exitDx=0;exitDy=0;exitPerimeter=0;" edge="1" parent="1" source="M7T0V7UtyjA9PLbuyTB--36" target="M7T0V7UtyjA9PLbuyTB--34">
          <mxGeometry width="50" height="50" relative="1" as="geometry">
            <mxPoint x="535" y="67" as="sourcePoint" />
            <mxPoint x="574" y="260" as="targetPoint" />
          </mxGeometry>
        </mxCell>
        <mxCell id="M7T0V7UtyjA9PLbuyTB--39" value="" style="edgeStyle=elbowEdgeStyle;elbow=horizontal;endArrow=classic;html=1;curved=0;rounded=0;endSize=8;startSize=8;entryX=1;entryY=0.5;entryDx=0;entryDy=0;dashed=1;exitX=-0.016;exitY=0.503;exitDx=0;exitDy=0;exitPerimeter=0;" edge="1" parent="1" source="M7T0V7UtyjA9PLbuyTB--36" target="M7T0V7UtyjA9PLbuyTB--7">
          <mxGeometry width="50" height="50" relative="1" as="geometry">
            <mxPoint x="545" y="77" as="sourcePoint" />
            <mxPoint x="584" y="270" as="targetPoint" />
          </mxGeometry>
        </mxCell>
      </root>
    </mxGraphModel>
  </diagram>
</mxfile>
